<?xml version="1.0" standalone="no"?>
<!DOCTYPE svg PUBLIC "-//W3C//DTD SVG 20010904//EN"
 "http://www.w3.org/TR/2001/REC-SVG-20010904/DTD/svg10.dtd">
<svg version="1.0" xmlns="http://www.w3.org/2000/svg"
 width="512.000000pt" height="512.000000pt" viewBox="0 0 512.000000 512.000000"
 preserveAspectRatio="xMidYMid meet">
<metadata>
Created by potrace 1.16, written by Peter Selinger 2001-2019
</metadata>
<g transform="translate(0.000000,512.000000) scale(0.100000,-0.100000)"
fill="#000000" stroke="none">
<path d="M2395 4545 c-124 -26 -185 -46 -300 -99 -195 -91 -412 -275 -528
-447 -31 -47 -57 -88 -57 -91 0 -3 7 -5 15 -5 16 0 28 24 19 38 -3 5 -1 8 4 7
5 -2 19 8 30 22 l21 25 1 -30 c0 -16 -7 -43 -15 -59 -9 -16 -14 -31 -11 -33 4
-4 46 51 46 61 0 3 11 18 24 33 14 16 51 60 84 98 96 115 226 212 389 294 340
170 732 174 1078 10 104 -49 260 -158 346 -241 71 -69 179 -201 179 -219 0 -5
5 -9 11 -9 6 0 1 15 -10 33 -12 20 -18 42 -14 56 4 17 1 23 -18 28 -20 6 -21
7 -4 13 13 4 28 -4 52 -27 18 -19 33 -38 33 -43 0 -5 6 -15 13 -22 7 -7 25
-34 40 -60 31 -53 42 -62 27 -22 -25 66 -147 229 -242 326 -197 198 -428 319
-707 369 -150 27 -360 25 -506 -6z"/>
<path d="M2585 4065 c-229 -42 -454 -209 -574 -427 -34 -63 -39 -77 -16 -54 8
8 15 18 15 23 0 5 14 14 31 20 19 8 28 16 24 23 -5 8 0 8 16 -1 33 -17 139
-20 146 -3 2 7 10 11 18 8 7 -3 15 5 19 18 5 18 8 20 15 9 7 -11 10 -10 15 6
10 33 100 131 167 183 150 117 333 162 449 109 99 -44 180 -158 180 -251 0
-55 17 -73 23 -26 3 27 5 29 11 13 6 -18 15 -20 87 -19 63 1 85 -3 102 -16 21
-18 22 -17 45 28 l23 47 -6 -37 c-4 -24 -2 -38 5 -38 15 0 12 87 -4 119 -34
65 -174 168 -304 221 -136 57 -327 75 -487 45z"/>
<path d="M2681 3885 c-18 -9 -62 -35 -97 -60 -51 -37 -69 -57 -95 -110 -28
-58 -31 -71 -27 -139 2 -41 6 -78 10 -82 4 -4 62 -6 129 -5 79 1 126 -2 135
-10 9 -7 14 -8 14 -1 0 6 -3 12 -8 14 -15 6 -79 104 -91 137 -27 80 5 182 75
239 36 30 37 32 14 32 -14 -1 -40 -7 -59 -15z"/>
<path d="M3750 3873 c0 -12 39 -83 46 -83 5 0 -17 51 -33 75 -7 11 -13 14 -13
8z"/>
<path d="M2065 3600 c3 -5 11 -10 16 -10 6 0 7 5 4 10 -3 6 -11 10 -16 10 -6
0 -7 -4 -4 -10z"/>
<path d="M1965 3549 c-4 -6 -5 -12 -2 -15 2 -3 7 2 10 11 7 17 1 20 -8 4z"/>
<path d="M2480 3461 c0 -6 4 -13 10 -16 6 -3 7 1 4 9 -7 18 -14 21 -14 7z"/>
<path d="M1536 3299 c-14 -11 -26 -24 -26 -28 0 -4 33 -3 73 1 39 5 82 7 95 5
14 -3 22 1 22 9 0 38 -120 48 -164 13z"/>
<path d="M3653 3310 c-27 -11 -30 -25 -5 -27 9 0 53 -4 97 -8 l80 -6 -28 25
c-22 21 -38 26 -75 25 -26 0 -57 -4 -69 -9z"/>
<path d="M1336 3261 c-4 -5 12 -7 36 -4 57 8 61 13 10 13 -22 0 -43 -4 -46 -9z"/>
<path d="M1458 3263 c7 -3 16 -2 19 1 4 3 -2 6 -13 5 -11 0 -14 -3 -6 -6z"/>
<path d="M3890 3263 c0 -5 24 -8 54 -8 30 0 52 3 49 8 -2 4 -26 7 -54 7 -27 0
-49 -3 -49 -7z"/>
<path d="M1397 3124 c-4 -4 -20 -7 -37 -6 -27 1 -30 -3 -30 -29 0 -25 4 -29
28 -29 54 0 73 11 70 38 -3 26 -18 38 -31 26z"/>
<path d="M3907 3112 c-17 -21 5 -46 43 -50 34 -4 50 9 50 39 0 22 -76 31 -93
11z"/>
<path d="M3270 2890 c-6 -11 -8 -25 -5 -30 9 -14 -44 -25 -58 -11 -6 6 -27 11
-46 11 l-36 0 0 -63 c0 -110 -60 -183 -159 -194 -62 -7 -108 11 -172 69 -65
60 -78 83 -95 168 -12 61 -13 63 -21 34 -7 -28 -11 -30 -45 -28 -21 1 -53 7
-72 13 -38 12 -51 8 -51 -17 -1 -15 -2 -15 -15 2 -14 18 -15 16 -15 -32 0 -93
55 -166 165 -220 209 -103 462 -70 614 80 49 48 91 128 91 172 0 28 -1 28 -13
11 -18 -24 -37 -11 -37 26 0 34 -14 38 -30 9z"/>
<path d="M3861 2883 c-1 -6 -4 -20 -7 -30 -5 -17 -5 -17 6 0 6 10 9 23 6 30
-3 9 -5 9 -5 0z"/>
<path d="M3812 2753 c-66 -161 -182 -326 -304 -434 -146 -128 -349 -239 -523
-286 -94 -25 -113 -27 -320 -27 -206 0 -226 2 -316 26 -111 30 -271 104 -379
173 -148 97 -308 273 -404 445 -20 36 -36 58 -36 48 0 -19 67 -141 81 -146 5
-2 9 -9 9 -16 0 -7 9 -21 20 -31 25 -23 26 -45 1 -52 -13 -3 -18 -10 -14 -21
4 -10 2 -13 -5 -8 -7 4 -12 18 -12 30 0 24 -12 38 -43 49 -23 9 -14 -9 48 -88
206 -266 458 -423 800 -496 126 -28 333 -30 475 -5 238 42 493 164 669 321 44
39 181 201 181 213 0 6 14 25 31 43 17 18 37 45 45 60 13 25 12 28 -1 23 -8
-4 -15 -9 -15 -14 0 -6 -14 -25 -51 -68 -9 -10 -13 -11 -19 -2 -4 7 -14 -3
-25 -27 -19 -39 -43 -69 -50 -61 -7 7 7 48 16 48 5 0 17 17 27 38 36 70 51 95
62 102 6 4 14 22 17 40 2 19 16 50 29 69 13 20 24 44 24 54 0 10 5 27 11 38 6
11 9 25 7 30 -2 6 -18 -25 -36 -68z m-2122 -328 c14 -19 14 -19 -2 -6 -10 7
-18 18 -18 24 0 6 1 8 3 6 1 -2 9 -13 17 -24z"/>
<path d="M3860 2677 c-9 -7 -14 -19 -12 -28 1 -9 -4 -23 -12 -32 -8 -8 -12
-18 -8 -21 3 -4 17 14 29 40 25 52 25 58 3 41z"/>
<path d="M2105 2640 c3 -5 8 -10 11 -10 2 0 4 5 4 10 0 6 -5 10 -11 10 -5 0
-7 -4 -4 -10z"/>
<path d="M2142 2630 c0 -14 2 -19 5 -12 2 6 2 18 0 25 -3 6 -5 1 -5 -13z"/>
<path d="M3314 2628 c-4 -7 -3 -8 4 -4 19 11 14 -2 -8 -24 -11 -11 -26 -17
-34 -14 -9 3 -28 -3 -43 -14 -172 -121 -418 -142 -621 -53 -68 30 -90 36 -102
27 -13 -9 -13 -9 -2 5 10 13 10 18 0 26 -27 21 -36 22 -42 7 -4 -12 -2 -15 9
-10 8 3 15 1 15 -4 0 -22 -56 -14 -81 11 -19 19 -45 27 -35 10 3 -5 -1 -12
-10 -15 -11 -4 -18 1 -21 14 -7 26 -29 26 -36 0 -4 -16 -10 -18 -33 -11 -16 4
-38 5 -49 1 -11 -4 -28 -3 -38 2 -41 21 -25 -3 33 -51 78 -65 221 -135 330
-161 96 -22 268 -27 364 -9 83 15 205 64 278 111 91 59 158 117 158 138 0 21
-26 34 -36 18z m-1084 -68 c0 -5 -2 -10 -4 -10 -3 0 -8 5 -11 10 -3 6 -1 10 4
10 6 0 11 -4 11 -10z"/>
<path d="M1515 2560 c3 -5 8 -10 11 -10 2 0 4 5 4 10 0 6 -5 10 -11 10 -5 0
-7 -4 -4 -10z"/>
<path d="M1230 1543 c1 -35 27 -114 29 -85 1 7 5 10 11 7 31 -19 49 -13 55 19
4 18 5 46 3 62 -3 27 -6 29 -50 32 l-48 3 0 -38z"/>
<path d="M1900 1533 c0 -60 8 -72 48 -77 34 -4 39 4 42 59 4 64 3 65 -45 65
l-45 0 0 -47z"/>
<path d="M2203 1553 c-18 -26 -43 -78 -43 -88 0 -3 18 -5 40 -5 34 0 43 5 65
38 l26 37 -28 22 c-35 29 -38 29 -60 -4z"/>
<path d="M3300 1521 c0 -59 14 -86 31 -60 5 8 9 9 9 3 0 -6 10 -9 24 -7 21 4
25 13 31 54 4 26 4 53 0 59 -3 5 -26 10 -51 10 l-44 0 0 -59z"/>
<path d="M1460 1520 c-16 -30 4 -52 44 -48 27 3 31 7 31 33 0 26 -4 30 -32 33
-24 2 -34 -2 -43 -18z"/>
<path d="M2684 1515 c-9 -38 3 -45 80 -45 81 0 110 16 89 48 -8 13 -27 17 -87
19 -72 1 -76 0 -82 -22z"/>
<path d="M3380 1349 c0 -37 -4 -58 -10 -54 -6 3 -11 -6 -12 -22 -1 -15 -4 -3
-8 27 -6 53 -7 53 -8 13 -1 -30 -6 -43 -16 -43 -35 0 -26 -98 12 -126 29 -21
122 -27 170 -11 36 12 48 13 79 1 50 -18 86 -17 130 1 30 13 42 14 67 4 16 -7
63 -12 105 -12 42 1 105 1 141 1 36 0 81 1 100 1 40 1 138 -1 220 -3 l55 -1 3
63 3 63 -26 -7 c-16 -4 -25 -2 -25 6 0 6 -6 18 -14 26 -13 12 -15 9 -18 -22
-4 -43 -24 -60 -62 -50 -19 5 -28 15 -33 37 -5 27 -7 29 -16 14 -8 -14 -11
-15 -19 -4 -7 11 -11 11 -15 2 -7 -20 -23 -15 -33 10 -8 21 -9 21 -9 -5 -1
-14 -4 -33 -7 -42 -14 -36 -94 -4 -94 36 0 20 -1 20 -18 5 -23 -21 -32 -21
-32 -2 0 8 -7 15 -15 15 -9 0 -15 -9 -15 -23 0 -36 -19 -47 -83 -47 -53 0 -62
3 -87 30 -24 26 -29 28 -40 14 -7 -8 -19 -13 -26 -10 -7 2 -20 -4 -30 -15 -14
-15 -28 -19 -63 -17 -43 3 -47 6 -58 38 -7 19 -12 29 -12 23 -1 -15 -31 -18
-31 -3 0 17 -20 11 -27 -7 -11 -33 -36 -53 -63 -53 -44 0 -52 20 -51 120 1 49
-1 90 -4 90 -3 0 -5 -27 -5 -61z"/>
<path d="M2941 1354 c0 -11 3 -14 6 -6 3 7 2 16 -1 19 -3 4 -6 -2 -5 -13z"/>
<path d="M3163 1363 c9 -2 23 -2 30 0 6 3 -1 5 -18 5 -16 0 -22 -2 -12 -5z"/>
<path d="M1311 1315 c-1 -17 -3 -18 -11 -5 -8 12 -10 8 -11 -15 -1 -16 -2 -37
-3 -45 -1 -14 -7 -16 -36 -11 -5 0 -11 9 -11 19 -1 9 -4 1 -8 -18 l-6 -35
-145 -2 c-157 -3 -192 5 -198 45 -2 12 -8 22 -13 22 -5 0 -8 -6 -7 -12 2 -8
-7 -12 -25 -11 -26 2 -28 0 -25 -34 2 -25 11 -42 29 -55 37 -28 154 -41 304
-34 72 4 153 6 180 4 58 -2 124 -2 180 2 45 3 200 3 260 -1 22 -1 65 -2 95 -1
30 0 82 0 115 0 236 -5 274 2 301 54 10 19 13 41 8 63 -7 37 -34 49 -34 15 0
-22 -25 -28 -33 -7 -4 8 -6 6 -6 -4 -2 -35 -34 -49 -117 -49 -83 0 -104 9
-104 42 0 10 -4 18 -10 18 -5 0 -7 8 -3 18 4 10 -6 5 -22 -13 -16 -16 -32 -30
-35 -30 -4 0 -14 -8 -24 -17 -19 -20 -76 -24 -107 -8 -13 8 -19 21 -19 45 0
19 -5 35 -11 35 -6 0 -9 -6 -6 -14 3 -8 -3 -22 -13 -31 -17 -15 -19 -15 -25 4
-9 29 -17 26 -36 -12 -14 -28 -21 -32 -61 -35 -56 -4 -78 14 -79 66 -1 20 -3
29 -6 20 -2 -10 -11 -18 -19 -18 -8 0 -14 -7 -14 -15 0 -13 -4 -14 -20 -5 -16
8 -20 8 -20 -4 0 -26 -30 -46 -68 -46 -54 0 -64 11 -72 76 -4 33 -8 50 -9 39z
m-4 -67 c-3 -8 -6 -5 -6 6 -1 11 2 17 5 13 3 -3 4 -12 1 -19z"/>
<path d="M3526 1305 c-9 -26 -7 -32 5 -12 6 10 9 21 6 23 -2 3 -7 -2 -11 -11z"/>
<path d="M2943 1272 c-1 -69 -7 -72 -163 -72 -161 0 -201 6 -207 32 -6 21 -21
24 -29 5 -8 -23 -34 -16 -34 10 0 13 -5 23 -11 23 -5 0 -7 5 -4 10 3 6 1 10
-4 10 -15 0 -13 -69 2 -99 6 -14 28 -34 47 -45 32 -19 55 -21 250 -24 121 -2
221 1 229 6 10 8 12 25 5 83 -4 41 -10 64 -12 52 -2 -16 -8 -20 -20 -16 -24 9
-39 26 -44 49 -3 10 -5 0 -5 -24z"/>
<path d="M3767 1290 c-3 -11 -1 -20 4 -20 5 0 9 9 9 20 0 11 -2 20 -4 20 -2 0
-6 -9 -9 -20z"/>
<path d="M3968 1303 c7 -3 16 -2 19 1 4 3 -2 6 -13 5 -11 0 -14 -3 -6 -6z"/>
<path d="M3691 1297 c2 -2 12 -9 22 -16 14 -11 17 -11 17 1 0 7 -10 14 -21 15
-12 1 -20 1 -18 0z"/>
<path d="M2195 1279 c-9 -14 -2 -20 14 -10 8 6 9 11 3 15 -6 3 -14 1 -17 -5z"/>
<path d="M3146 1228 c-3 -24 -7 -59 -8 -78 -3 -28 -10 -40 -41 -59 -32 -21
-38 -30 -35 -55 3 -28 6 -31 34 -30 52 3 87 26 112 74 33 67 28 170 -9 170
-11 0 -19 5 -19 10 0 6 -6 10 -14 10 -10 0 -17 -15 -20 -42z"/>
<path d="M1643 1071 c-16 -10 -21 -35 -12 -53 13 -24 157 -21 173 5 8 12 8 22
0 35 -9 13 -26 17 -81 18 -39 1 -75 -1 -80 -5z"/>
<path d="M875 731 c-52 -32 -67 -56 -68 -110 -1 -54 17 -85 57 -97 11 -3 29
-13 38 -21 9 -8 25 -13 35 -10 17 4 17 5 -2 13 -22 10 -34 40 -13 32 71 -27
79 -14 13 21 -50 26 -64 56 -45 91 12 23 18 23 149 8 30 -4 51 25 35 49 -11
18 -90 43 -139 43 -16 0 -43 -8 -60 -19z"/>
<path d="M1182 738 c-8 -8 -12 -46 -12 -105 0 -84 2 -94 18 -91 14 2 17 -5 18
-37 2 -59 3 -61 20 -37 8 12 12 27 9 33 -8 11 25 40 37 33 5 -3 8 -1 8 3 0 5
31 8 70 8 50 -1 74 -6 88 -18 24 -22 29 -21 35 3 3 11 12 20 20 20 11 0 17 17
22 64 11 101 -9 151 -52 128 -8 -5 -36 -44 -62 -87 -26 -43 -52 -80 -58 -82
-6 -2 -25 22 -43 54 -63 113 -90 139 -118 111z"/>
<path d="M1732 741 c-7 -4 -26 -46 -41 -92 -35 -106 -46 -154 -33 -145 5 3 12
19 15 36 7 32 31 41 41 15 4 -12 10 -13 24 -6 13 7 23 6 32 -2 10 -10 10 -8 1
10 -10 19 -8 22 9 20 14 -1 20 -9 21 -27 0 -14 3 -19 6 -12 7 18 23 15 23 -5
0 -9 3 -14 6 -11 6 7 -20 116 -42 173 -20 51 -36 63 -62 46z"/>
<path d="M2001 736 c-7 -9 -11 -40 -9 -78 3 -54 6 -63 21 -60 9 2 17 -3 17
-10 1 -22 30 24 30 47 0 29 19 45 55 45 43 0 93 -34 101 -67 9 -44 12 -50 13
-25 1 34 39 30 44 -5 2 -16 5 -5 6 24 1 43 -4 57 -26 84 -15 17 -42 38 -60 45
-44 19 -177 19 -192 0z"/>
<path d="M2361 732 c-16 -30 5 -52 49 -52 46 0 60 -18 60 -79 0 -22 5 -43 10
-46 10 -6 12 0 14 45 1 17 7 26 21 28 11 2 25 13 30 25 8 17 20 23 52 25 32 2
44 8 48 23 14 42 -9 49 -146 49 -113 0 -129 -2 -138 -18z"/>
<path d="M2970 727 c-52 -34 -72 -76 -61 -123 l9 -39 1 38 c1 28 5 37 19 37 9
0 31 8 47 17 17 9 57 19 89 22 62 6 85 24 73 55 -11 27 -134 22 -177 -7z"/>
<path d="M3227 743 c-4 -3 -6 -29 -6 -57 1 -28 3 -43 6 -33 7 26 27 15 33 -19
7 -37 16 -22 25 39 5 32 3 52 -5 62 -13 16 -42 20 -53 8z"/>
<path d="M3547 743 c-14 -13 -7 -91 8 -97 18 -7 21 20 3 28 -9 3 -7 9 6 20 16
13 22 13 28 3 5 -7 8 -2 8 14 0 31 -34 51 -53 32z"/>
<path d="M3693 743 c-8 -3 -13 -25 -13 -61 0 -54 14 -68 15 -14 0 23 4 27 28
27 31 -1 33 3 11 33 -16 23 -20 24 -41 15z"/>
<path d="M3923 743 c-7 -2 -13 -11 -13 -20 0 -8 6 -13 13 -10 6 2 20 0 30 -5
22 -11 23 5 1 26 -8 9 -16 16 -17 15 -1 0 -8 -3 -14 -6z"/>
<path d="M4047 743 c-4 -3 -7 -15 -7 -26 0 -15 3 -17 14 -8 19 16 28 -7 37
-94 l6 -70 0 90 c0 50 -4 96 -10 103 -10 13 -30 16 -40 5z"/>
<path d="M4280 743 c-61 -20 -76 -48 -44 -81 15 -15 16 -14 9 7 -4 15 -3 21 3
17 18 -11 102 6 102 20 0 18 47 19 53 2 3 -7 6 -3 6 8 1 14 -7 24 -21 28 -27
7 -86 7 -108 -1z m15 -43 c-3 -5 -14 -10 -23 -10 -15 0 -15 2 -2 10 20 13 33
13 25 0z"/>
<path d="M3717 683 c-4 -3 -7 -16 -7 -29 0 -17 4 -21 20 -17 11 3 20 10 20 17
0 6 7 2 15 -8 17 -23 20 -14 4 15 -5 11 -15 17 -21 13 -5 -4 -13 -1 -17 5 -4
6 -10 8 -14 4z"/>
<path d="M3951 664 c0 -11 3 -14 6 -6 3 7 2 16 -1 19 -3 4 -6 -2 -5 -13z"/>
<path d="M3910 655 c0 -8 5 -15 10 -15 6 0 10 7 10 15 0 8 -4 15 -10 15 -5 0
-10 -7 -10 -15z"/>
<path d="M2516 591 c-4 -7 -5 -15 -2 -18 9 -9 19 4 14 18 -4 11 -6 11 -12 0z"/>
<path d="M2038 565 c-3 -4 -2 -19 3 -34 8 -21 16 -27 42 -28 l32 -2 -32 10
c-24 7 -33 16 -35 35 -2 14 -6 23 -10 19z"/>
<path d="M4170 463 c0 -142 35 -189 151 -199 59 -6 69 -4 88 15 17 17 19 25
11 41 -9 16 -21 20 -68 20 -80 0 -102 17 -102 79 0 77 -9 109 -30 104 -9 -2
-24 3 -34 12 -15 15 -16 10 -16 -72z"/>
<path d="M1376 525 c-3 -8 -3 -15 0 -15 3 0 12 7 20 15 13 13 13 15 1 15 -8 0
-17 -7 -21 -15z"/>
<path d="M1687 521 c-2 -10 -1 -25 4 -32 6 -10 9 -4 9 19 0 36 -5 42 -13 13z"/>
<path d="M1290 521 c0 -6 5 -13 10 -16 6 -3 10 1 10 9 0 9 -4 16 -10 16 -5 0
-10 -4 -10 -9z"/>
<path d="M4064 507 c-16 -8 -24 -24 -28 -55 -11 -84 -7 -149 12 -172 23 -28
50 -17 57 23 9 49 1 210 -10 212 -5 1 -20 -2 -31 -8z"/>
<path d="M1010 502 c0 -5 7 -13 16 -16 10 -4 14 -1 12 6 -5 15 -28 23 -28 10z"/>
<path d="M3850 500 c0 -8 -10 -11 -29 -8 -27 4 -29 3 -20 -21 20 -50 82 -161
105 -186 20 -21 27 -24 44 -15 18 10 20 21 20 113 0 56 -4 107 -8 112 -8 12
-51 13 -70 1 -7 -4 -19 -2 -27 4 -12 10 -15 10 -15 0z"/>
<path d="M3587 488 c-4 -11 -12 -15 -23 -11 -25 9 -34 -15 -34 -99 0 -95 5
-108 40 -108 35 0 40 13 39 108 -1 89 -11 138 -22 110z"/>
<path d="M982 476 c7 -8 17 -12 22 -9 4 3 2 9 -5 14 -22 13 -31 11 -17 -5z"/>
<path d="M3675 481 c-3 -2 -5 -48 -5 -102 0 -104 9 -123 50 -112 23 6 30 33
29 113 -1 88 -8 105 -42 106 -15 0 -30 -2 -32 -5z"/>
<path d="M1051 466 c-9 -11 -8 -15 5 -20 9 -4 19 -4 22 -1 3 3 -1 5 -9 5 -12
0 -12 2 0 9 8 5 9 11 3 15 -5 3 -15 0 -21 -8z"/>
<path d="M3216 411 c-19 -138 -8 -151 131 -151 109 0 127 8 121 52 -3 21 -9
23 -88 28 l-85 5 -5 55 c-5 54 -6 55 -36 55 -30 0 -32 -3 -38 -44z"/>
<path d="M1010 440 c20 -13 33 -13 25 0 -3 6 -14 10 -23 10 -15 0 -15 -2 -2
-10z"/>
<path d="M2900 395 c0 -78 70 -135 165 -135 54 0 85 14 85 38 0 31 -22 42 -80
42 -66 0 -89 14 -99 60 -6 30 -11 35 -39 36 -31 2 -32 1 -32 -41z"/>
<path d="M2520 421 c0 -6 -11 -11 -24 -11 -16 0 -26 -7 -30 -22 -10 -38 -7
-93 6 -106 17 -17 55 -15 62 4 10 26 7 132 -4 139 -5 3 -10 1 -10 -4z"/>
<path d="M2174 398 c-3 -5 7 -35 23 -66 30 -60 58 -77 82 -48 11 13 9 24 -12
63 -19 37 -31 49 -56 54 -17 4 -34 2 -37 -3z"/>
<path d="M2012 379 c-20 -8 -23 -15 -20 -56 3 -46 4 -48 33 -48 28 0 30 3 33
40 4 51 -14 77 -46 64z"/>
<path d="M1845 337 c12 -57 15 -65 34 -70 11 -2 24 0 30 6 26 26 -3 89 -43 93
-26 3 -27 1 -21 -29z"/>
<path d="M1451 329 c-14 -41 -4 -61 28 -57 21 2 27 9 29 33 2 24 -3 32 -22 41
-23 11 -26 9 -35 -17z"/>
<path d="M1595 337 c-23 -35 -16 -61 16 -65 27 -3 32 3 49 61 5 16 5 27 -1 27
-5 0 -9 -6 -9 -12 0 -9 -4 -8 -10 2 -9 13 -10 13 -10 0 0 -12 -2 -13 -9 -1 -7
11 -12 8 -26 -12z"/>
<path d="M1030 318 c0 -6 -7 -8 -15 -4 -8 3 -15 1 -15 -4 0 -14 -44 -12 -58 2
-9 9 -12 9 -12 1 0 -7 -12 -13 -27 -15 l-28 -4 28 -12 c48 -20 112 -15 143 11
27 23 27 24 6 29 -12 4 -22 2 -22 -4z"/>
<path d="M1210 320 c0 -6 -8 -10 -17 -8 -10 2 -18 -3 -18 -11 0 -19 29 -36 49
-28 21 8 22 57 1 57 -8 0 -15 -5 -15 -10z"/>
<path d="M847 309 c7 -7 15 -10 18 -7 3 3 -2 9 -12 12 -14 6 -15 5 -6 -5z"/>
</g>
</svg>
